<svg width="20" height="23" viewBox="0 0 20 23" fill="none" xmlns="http://www.w3.org/2000/svg">
<path d="M10 2.67838C11.45 2.67838 12.625 4.00347 12.625 5.63869C12.625 7.27391 11.45 8.599 10 8.599C8.55 8.599 7.375 7.27391 7.375 5.63869C7.375 4.00347 8.55 2.67838 10 2.67838ZM10 15.3654C13.7125 15.3654 17.625 17.4236 17.625 18.3257V19.8764H2.375V18.3257C2.375 17.4236 6.2875 15.3654 10 15.3654ZM10 0C7.2375 0 5 2.52331 5 5.63869C5 8.75407 7.2375 11.2774 10 11.2774C12.7625 11.2774 15 8.75407 15 5.63869C15 2.52331 12.7625 0 10 0ZM10 12.6871C6.6625 12.6871 0 14.576 0 18.3257V22.5548H20V18.3257C20 14.576 13.3375 12.6871 10 12.6871Z" fill="black"/>
</svg>
